<svg xmlns="http://www.w3.org/2000/svg" viewBox="0 0 236.82 338"><defs><style>.cls-1{fill:#00a0e3;}</style></defs><title>Asset 1</title><g id="Layer_2" data-name="Layer 2"><g id="Layer_1-2" data-name="Layer 1"><g id="Layer_2-2" data-name="Layer 2"><g id="Layer_1-2-2" data-name="Layer 1-2"><path class="cls-1" d="M107.59,0h22c2.9.6,5.8,1.4,8.7,1.8,43.2,6.2,82.6,41.5,94.2,83.7,6.6,24.1,5.3,47.7-1.5,71.4a473.2,473.2,0,0,1-69,143.9c-10.5,14.9-22,29.4-39.4,37.2h-8c-6.5-4.7-13.8-8.7-19.4-14.3A201.5,201.5,0,0,1,73.89,298,490.51,490.51,0,0,1,9.59,168.4c-7-21.8-12.3-44-8.1-67.2,9.1-50,38.2-82.2,86.6-96.9C94.49,2.3,101.09,1.4,107.59,0Zm11.6,192.7c41.7-.9,74.4-34.5,73.4-75.7-.9-40.5-34.4-73.1-74.6-72.4-41.4.7-74.2,34.1-73.4,75.1C45.29,160.4,79.09,193.5,119.19,192.7Z"/></g></g></g></g></svg>