<svg xmlns="http://www.w3.org/2000/svg" viewBox="0 0 338.1 334.02"><defs><style>.cls-1{fill:#fff;}</style></defs><title>Asset 1</title><g id="Layer_2" data-name="Layer 2"><g id="Layer_1-2" data-name="Layer 1"><path class="cls-1" d="M0,55.87c1.6-6.6,3.1-13.2,5-19.7.9-3.1,2.6-6.1,4-9.4,27.2,27.7,54,54.9,81.1,82.5-6.9,7.4-5.7,16.7-.3,25.5,4.9,8,10,16.2,16.5,22.9,23.6,24.4,47.9,48.1,71.9,72.2,9.8,9.8,21.9,15.5,34.6,20.3,4.4,1.7,8.2-.1,11.6-2.7,1.4-1.1,2.7-2.4,4.3-3.8l80.7,82.2a38.1,38.1,0,0,1-18.7,7c-37.9,3.8-73.5-1.4-106.9-21.9-50.7-31.1-95.2-68.8-132.3-115.2-17.3-21.7-33-44.6-41.3-71.3C6,110.88,4,96.58,1,82.58c-.3-1.3-.7-2.5-1-3.7C0,71.17,0,63.57,0,55.87Z"/><path class="cls-1" d="M338,294.87c-3.8,9.1-11.3,14.9-18.2,21.3-27.2-27.4-54.3-54.6-80.7-81.3,4.4-4.8,8.8-10.2,14.1-14.8,1.9-1.6,6.2-2,8.6-1.1a34.16,34.16,0,0,1,10.7,7c20.2,19.6,40.2,39.4,60.2,59.1,1.9,1.8,3.6,3.8,5.4,5.7C338,292.17,338,293.58,338,294.87Z"/><path class="cls-1" d="M101.8,97.37q-41.7-40.8-82.1-80.5C24.8,11.37,29.5,5.77,35,1c1.7-1.4,5.7-1.1,8.3-.3s4.8,2.9,6.8,4.8q30.3,29.7,60.5,59.7a42.85,42.85,0,0,1,4,4.5c4.7,6.5,4.4,10-1.1,15.7Z"/></g></g></svg>